<?xml version="1.0" encoding="UTF-8"?>
<!DOCTYPE svg PUBLIC "-//W3C//DTD SVG 1.1//EN" "http://www.w3.org/Graphics/SVG/1.1/DTD/svg11.dtd">
<!-- Creator: CorelDRAW -->
<svg xmlns="http://www.w3.org/2000/svg" xml:space="preserve" width="297mm" height="210mm" version="1.1" style="shape-rendering:geometricPrecision; text-rendering:geometricPrecision; image-rendering:optimizeQuality; fill-rule:evenodd; clip-rule:evenodd"
viewBox="0 0 29700 21000"
 xmlns:xlink="http://www.w3.org/1999/xlink"
 xmlns:xodm="http://www.corel.com/coreldraw/odm/2003">
 <defs>
  <style type="text/css">
   <![CDATA[
    .fil1 {fill:#F9A21D}
    .fil2 {fill:url(#id0)}
    .fil5 {fill:url(#id1)}
    .fil4 {fill:url(#id2)}
    .fil3 {fill:url(#id3)}
    .fil0 {fill:url(#id4)}
    .fil7 {fill:url(#id5);fill-rule:nonzero}
    .fil6 {fill:url(#id6);fill-rule:nonzero}
   ]]>
  </style>
  <linearGradient id="id0" gradientUnits="userSpaceOnUse" x1="5851.3" y1="7672.85" x2="18383.91" y2="48008.38">
   <stop offset="0" style="stop-opacity:1; stop-color:#003149"/>
   <stop offset="0.921569" style="stop-opacity:1; stop-color:#7F98A4"/>
   <stop offset="1" style="stop-opacity:1; stop-color:white"/>
  </linearGradient>
  <linearGradient id="id1" gradientUnits="userSpaceOnUse" xlink:href="#id0" x1="5851.38" y1="7672.79" x2="18383.79" y2="48008.08">
  </linearGradient>
  <linearGradient id="id2" gradientUnits="userSpaceOnUse" xlink:href="#id0" x1="5851.3" y1="7672.85" x2="18383.93" y2="48008.41">
  </linearGradient>
  <linearGradient id="id3" gradientUnits="userSpaceOnUse" xlink:href="#id0" x1="5851.3" y1="7672.85" x2="18383.9" y2="48008.38">
  </linearGradient>
  <linearGradient id="id4" gradientUnits="userSpaceOnUse" xlink:href="#id0" x1="5851.27" y1="7672.85" x2="18383.93" y2="48008.47">
  </linearGradient>
  <linearGradient id="id5" gradientUnits="userSpaceOnUse" x1="10701.86" y1="15726.81" x2="11884.52" y2="22335.83">
   <stop offset="0" style="stop-opacity:1; stop-color:#FAA41D"/>
   <stop offset="1" style="stop-opacity:1; stop-color:white"/>
  </linearGradient>
  <linearGradient id="id6" gradientUnits="userSpaceOnUse" xlink:href="#id0" x1="6008.6" y1="7672.85" x2="18541.19" y2="48008.37">
  </linearGradient>
 </defs>
 <g id="Warstwa_x0020_1">
  <metadata id="CorelCorpID_0Corel-Layer"/>
  <g id="_105553223506176">
   <path class="fil0" d="M27541.72 9119.88c347.06,-179.72 612.41,394.55 233.32,555.37 -322.68,136.89 -659.05,-334.93 -233.32,-555.37zm-784.57 -25.41l-6017.52 0.32 -428.23 1040.11c36.72,56.63 364.11,355.88 434.36,403.42 88.44,-101.3 256.56,-454.36 316.79,-611.29 43.23,-112.65 46.71,-151.97 114.8,-233.55l5579.8 -3.87c87.96,26.19 292.82,707.41 1042.54,594.19 985.83,-148.88 1014.31,-1612.13 3.44,-1781.75 -729.79,-122.47 -933.37,521.38 -1045.98,592.42z"/>
   <path class="fil1" d="M27541.72 9119.88c-425.73,220.44 -89.36,692.26 233.32,555.37 379.09,-160.82 113.74,-735.09 -233.32,-555.37z"/>
   <path class="fil2" d="M20222.71 7920.03l-1232.91 1.88c-143.15,1743.68 -1594.49,3150.32 -3423.04,3168.43 -1860.59,18.43 -3327.15,-1399.77 -3488.34,-3140.4 -179.78,-1941.47 1200.33,-3454.69 2829.77,-3745.74 1585.35,-283.17 3152.23,571.77 3766.29,1928.24 85.36,188.55 145.49,432.53 228.79,598.73l1235.86 -1.48c-25.65,-602.02 -634.28,-1779.26 -1087.81,-2237.97 -812.56,-821.84 -1602.17,-1347.58 -2853.08,-1524.63 -2105.8,-298.05 -4070.93,816.25 -4953.33,2722.97 -680.59,1470.63 -484.16,3273.91 425.09,4611.69 1153.18,1696.68 3412.73,2468.95 5461.88,1737.99 761.55,-271.67 914.49,-504.24 1270.98,-674.75l896.21 894.54 -270.55 280.12 840.22 937.68c67.87,69.12 102.08,131.02 168.43,203.09 71.73,77.9 116.85,104.13 182.98,185.45l2081.61 2296.1c66.12,75.5 95.35,130.39 168.95,201.7 157.59,152.66 204.28,228.37 359.06,380.23 68.16,66.88 105.67,126.72 168,202.76 65.34,79.71 112.49,107.99 183.41,184.83l1387.21 1528.42c165.08,-131.62 1950.52,-1918.58 2013.63,-2032.88 -70.9,-44.44 -123.23,-88.95 -191.93,-144.8l-5338.35 -4834.99c-78.23,-74.56 -105.3,-115.35 -187.59,-181.68 -144.34,-116.35 -250.03,-233.28 -395.84,-350.21l-271.45 256.04c-200.36,-84.58 -689.17,-704.63 -920.67,-874.1 62.94,-156.97 372.34,-521.9 618.62,-1121.34 182.77,-444.88 285.62,-935.53 327.9,-1455.92z"/>
   <path class="fil3" d="M18459.89 12846.78c-63.09,-106.9 -92.72,-137.1 -196.24,-230.43 -81.05,-73.08 -123.4,-146.62 -198.91,-222.49 -373.53,106.72 -575.97,337.93 -1477.67,517.4 -1782.1,354.7 -3691.57,-272.97 -4860.42,-1463.65 -91.11,-92.81 -144.71,-168.9 -233.01,-261.17 -1270.62,-1327.72 -1702.17,-3616.3 -1035.41,-5390.33 1325.7,-3527.23 5520.64,-4636.25 8338.19,-2465.84 502.97,387.44 1154.21,1036.89 1417.61,1627.96l675.75 -2.71c-873.93,-1779.44 -2882.23,-3473.86 -5723.07,-3317.6 -3915.27,215.36 -6500.06,4153.24 -5359.24,7749.83 417.69,1316.82 1280.55,2496.11 2438.24,3236.98 1368.04,875.48 2932.98,1205.27 4562.91,851.34 668.08,-145.08 1104.11,-352.56 1651.27,-629.29z"/>
   <path class="fil4" d="M15280.59 6048.83c937.65,-153.19 1723.55,538.8 1830.28,1342.6 124.7,939.17 -535.24,1666.16 -1315.49,1798.23 -947.9,160.45 -1721.74,-540.48 -1836.68,-1333.9 -136.25,-940.51 541.79,-1679.49 1321.89,-1806.93zm10533.27 1274.77c381.15,-107.28 487.8,454.98 186.44,578.01 -413.39,168.76 -616,-457.1 -186.44,-578.01zm-6824.06 598.31l1232.91 -1.88 693.66 -2.92 -53.19 586.73 599.56 -1.36 61.08 -583.51 3507.83 -1.59c260.35,884.98 1739.68,775.43 1749.49,-280.53 9.22,-992.7 -1330.85,-1303.93 -1756.29,-318.07l-7317.66 1.69c-108.19,-528.16 -327.85,-1046.72 -738.77,-1361.86 -1672,-1282.27 -3583.02,-57.96 -3625.89,1617.33 -55.64,2174.19 2857.24,3138.2 4080.99,1148.11 153.06,-248.9 225.05,-485.33 281.39,-797.79l1284.89 -4.35z"/>
   <path class="fil5" d="M24004.13 5557.87c403.66,-135.82 548.46,459.76 204.15,577.86 -414.06,142.02 -545.09,-463.14 -204.15,-577.86zm-761.32 -15.34l-2712.88 6.77c26.89,147.65 129.36,385.56 178.47,551.36 63.08,212.99 98.67,403.09 150.85,623.78l583.68 6.76c14.89,-170.38 -66.57,-405.93 -91.6,-586.74l1891.48 1.06c213,344.22 436.01,685.49 1012.46,592.13 999.89,-161.95 982.12,-1601.12 30.54,-1776.97 -659.96,-121.97 -874.02,340.16 -1043,581.85z"/>
   <path class="fil1" d="M25813.86 7323.6c-429.56,120.91 -226.95,746.77 186.44,578.01 301.36,-123.03 194.71,-685.29 -186.44,-578.01z"/>
   <path class="fil1" d="M24004.13 5557.87c-340.94,114.72 -209.91,719.88 204.15,577.86 344.31,-118.1 199.51,-713.68 -204.15,-577.86z"/>
   <path class="fil6" d="M4711.63 12524.45l0 -1400.85 707.45 0 0 2467.6c0,203.19 -19.81,380.99 -59.45,533.38 -39.63,152.4 -92.15,284.27 -157.54,395.64 -65.39,111.36 -139.71,203.2 -222.94,275.48 -83.22,72.29 -168.43,131.88 -255.63,178.77 -206.09,105.5 -437.95,160.21 -695.56,164.11 -265.55,-3.9 -501.36,-58.61 -707.45,-164.11 -87.2,-46.89 -173.4,-106.48 -258.61,-178.77 -85.22,-72.28 -160.52,-163.14 -225.91,-272.55 -65.4,-109.41 -117.91,-240.32 -157.54,-392.71 -39.64,-152.39 -59.46,-330.18 -59.46,-533.37 0,-203.2 18.83,-380.99 56.48,-533.39 37.65,-152.39 87.2,-284.26 148.63,-395.63 61.44,-111.37 130.78,-204.17 208.08,-278.41 77.27,-74.25 157.54,-134.81 240.77,-181.7 190.23,-109.41 408.21,-168.02 653.94,-175.84 122.87,11.73 241.76,41.03 356.69,87.92 99.09,42.98 200.16,108.43 303.2,196.35 103.05,87.92 188.26,213.94 255.64,378.06l-130.79 -169.98zm-683.67 1945.95c146.63,0 264.55,-29.31 353.72,-87.92 89.18,-58.61 158.54,-131.88 208.08,-219.8 49.53,-87.92 82.23,-182.68 98.09,-284.27 15.85,-101.6 23.78,-195.38 23.78,-281.34 0,-85.97 -7.93,-179.75 -23.78,-281.35 -15.86,-101.59 -48.56,-196.35 -98.09,-284.27 -49.54,-87.92 -118.9,-161.18 -208.08,-219.79 -89.17,-58.62 -207.09,-87.92 -353.72,-87.92 -146.64,0 -264.55,29.3 -353.73,87.92 -89.18,58.61 -157.54,131.87 -205.1,219.79 -47.56,87.92 -79.27,182.68 -95.13,284.27 -15.84,101.6 -23.77,195.38 -23.77,281.35 0,85.96 7.93,179.74 23.77,281.34 15.86,101.59 47.57,196.35 95.13,284.27 47.56,87.92 115.92,161.19 205.1,219.8 89.18,58.61 207.09,87.92 353.73,87.92zm2383.94 -1775.97c67.37,-164.12 152.57,-290.14 255.62,-378.06 103.05,-87.92 204.11,-153.37 303.2,-196.35 114.94,-46.89 233.84,-76.19 356.7,-87.92 245.73,7.82 463.7,66.43 653.95,175.84 83.23,46.89 163.48,107.45 240.76,181.7 77.3,74.24 146.65,167.04 208.09,278.41 61.43,111.37 110.96,243.24 148.61,395.63 37.66,152.4 56.48,330.19 56.48,533.39 0,203.19 -20.81,380.98 -62.42,533.37 -41.62,152.39 -95.12,283.3 -160.51,392.71 -65.39,109.41 -140.7,200.27 -225.91,272.55 -85.21,72.29 -171.41,131.88 -258.62,178.77 -206.09,105.5 -439.91,160.21 -701.5,164.11 -261.58,-3.9 -493.42,-58.61 -695.56,-164.11 -87.19,-46.89 -172.41,-106.48 -255.63,-178.77 -83.24,-72.28 -157.54,-164.12 -222.94,-275.48 -65.39,-111.37 -117.91,-243.24 -157.55,-395.64 -39.62,-152.39 -59.44,-330.19 -59.44,-533.38l0 -2467.6 707.45 0 0 1400.85 -130.78 169.98zm814.45 1775.97c146.65,0 264.56,-29.31 353.73,-87.92 89.18,-58.61 157.55,-131.88 205.11,-219.8 47.55,-87.92 79.26,-182.68 95.11,-284.27 15.85,-101.6 23.78,-195.38 23.78,-281.34 0,-85.97 -7.93,-179.75 -23.78,-281.35 -15.85,-101.59 -47.56,-196.35 -95.11,-284.27 -47.56,-87.92 -115.93,-161.18 -205.11,-219.79 -89.17,-58.62 -207.08,-87.92 -353.73,-87.92 -146.64,0 -264.55,29.3 -353.72,87.92 -89.18,58.61 -158.53,131.87 -208.07,219.79 -49.54,87.92 -82.24,182.68 -98.09,284.27 -15.86,101.6 -23.79,195.38 -23.79,281.35 0,85.96 7.93,179.74 23.79,281.34 15.85,101.59 48.55,196.35 98.09,284.27 49.54,87.92 118.89,161.19 208.07,219.8 89.17,58.61 207.08,87.92 353.72,87.92zm3168.68 -1746.66c-154.57,0 -277.43,25.39 -368.59,76.19 -91.16,50.8 -159.52,118.21 -205.11,202.22 -45.57,84.01 -75.3,177.78 -89.17,281.34 -13.87,103.55 -20.8,208.07 -20.8,313.58 0,85.96 7.92,179.74 23.78,281.34 15.85,101.59 48.55,196.35 98.09,284.27 49.54,87.92 118.9,161.19 208.08,219.8 89.17,58.61 207.08,87.92 353.72,87.92 146.65,0 264.55,-29.31 353.73,-87.92 89.17,-58.61 157.53,-131.88 205.09,-219.8 47.56,-87.92 79.28,-182.68 95.13,-284.27 15.85,-101.6 23.77,-195.38 23.77,-281.34 0,-85.97 -7.92,-179.75 -23.77,-281.35 -15.85,-101.59 -47.57,-196.35 -95.13,-284.27 -47.56,-87.92 -115.92,-161.18 -205.09,-219.79 -89.18,-58.62 -207.08,-87.92 -353.73,-87.92zm-1391.12 879.19c0,-246.18 25.75,-465.97 77.28,-659.4 51.52,-193.42 133.77,-357.54 246.71,-492.35 112.96,-134.81 256.64,-238.36 431.02,-310.64 174.39,-72.3 386.42,-108.44 636.11,-108.44 261.58,7.82 495.41,66.43 701.5,175.84 87.2,46.89 173.4,107.45 258.61,181.7 85.21,74.24 160.51,167.04 225.91,278.41 65.4,111.37 118.9,243.24 160.51,395.63 41.62,152.4 62.43,330.19 62.43,533.39 0,203.19 -18.83,380.98 -56.48,533.37 -37.65,152.39 -87.19,283.3 -148.62,392.71 -61.44,109.41 -130.79,200.27 -208.08,272.55 -77.28,72.29 -157.54,131.88 -240.77,178.77 -190.24,105.5 -408.22,160.21 -653.95,164.11 -122.86,-7.81 -241.75,-33.2 -356.69,-76.19 -99.09,-39.08 -200.16,-101.59 -303.2,-187.56 -103.05,-85.96 -188.26,-211.01 -255.64,-375.12l130.8 169.97 0 1394.99 -707.45 0 0 -2461.74z"/>
   <path class="fil7" d="M3975.33 16812.8c62.25,0 147.85,1.1 256.78,3.29 108.95,2.19 225.67,10.96 350.16,26.3 124.51,15.35 250.12,41.65 376.85,78.91 126.72,37.27 241.22,90.97 343.5,161.11 102.26,70.15 185.64,160.01 250.11,269.61 64.47,109.6 96.71,245.5 96.71,407.71 0,254.27 -56.69,457.03 -170.08,608.27 -113.38,151.25 -252.34,266.33 -416.86,345.24 -164.52,78.91 -341.27,129.32 -530.25,151.24 -188.98,21.92 -356.83,32.88 -503.56,32.88 -26.68,0 -84.49,-1.09 -173.42,-3.29 -88.93,-2.19 -192.32,-14.25 -310.14,-36.17 -117.83,-21.91 -242.34,-56.99 -373.51,-105.21 -131.17,-48.23 -251.23,-117.27 -360.17,-207.14 -108.94,-89.87 -198.99,-206.04 -270.12,-348.53 -71.15,-142.47 -106.72,-316.73 -106.72,-522.78l813.72 0c0,39.46 6.66,86.58 20.01,141.38 13.33,54.8 44.45,108.51 93.37,161.11 48.91,52.61 122.28,97.54 220.1,134.81 97.82,37.27 231.22,58.09 400.19,62.48 208.99,4.37 370.17,-4.39 483.55,-26.32 113.39,-21.91 196.76,-51.5 250.12,-88.77 53.36,-37.26 85.6,-75.62 96.72,-115.08 11.11,-39.45 16.67,-76.71 16.67,-111.78 0,-39.46 -6.67,-78.91 -20,-118.37 -13.35,-39.46 -47.8,-75.62 -103.39,-108.5 -55.58,-32.89 -142.29,-60.28 -260.12,-82.2 -117.84,-21.92 -281.24,-35.07 -490.23,-39.46 -160.07,-4.38 -320.15,-26.3 -480.22,-65.76 -160.08,-39.45 -304.59,-99.73 -433.54,-180.83 -128.94,-81.11 -233.44,-183.03 -313.48,-305.78 -80.03,-122.75 -120.05,-267.42 -120.05,-434.01 0,-184.12 40.02,-345.24 120.05,-483.33 80.04,-138.09 185.65,-250.98 316.81,-338.66 131.18,-87.68 281.24,-153.44 450.21,-197.28 168.97,-43.83 346.84,-65.75 533.59,-65.75 97.82,0 228.99,10.95 393.51,32.88 164.52,21.91 325.71,72.33 483.56,151.25 157.86,78.9 293.47,195.07 406.86,348.51 113.38,153.45 167.85,361.68 163.41,624.72l-813.72 0c0,-140.29 -47.8,-250.98 -143.4,-332.09 -95.6,-81.1 -265.68,-121.66 -510.23,-121.66 -182.31,0 -329.05,33.98 -440.21,101.93 -111.16,67.95 -166.74,161.11 -166.74,279.48 0,113.98 53.36,195.09 160.07,243.31 106.72,48.22 244.56,72.33 413.53,72.33zm5149.06 -72.33c8.9,65.75 16.67,133.7 23.35,203.85 6.67,70.14 10,144.67 10,223.58l0 118.37 -2334.42 0c8.9,74.52 20.01,150.14 33.35,226.87 13.34,76.71 35.57,152.34 66.7,226.87 48.92,113.97 124.5,214.81 226.77,302.48 102.27,87.68 244.56,131.53 426.87,131.53 182.3,0 324.59,-43.85 426.86,-131.53 102.27,-87.67 177.87,-188.51 226.78,-302.48l867.06 0c-35.56,153.43 -85.58,287.14 -150.07,401.12 -64.47,113.99 -135.62,212.62 -213.43,295.92 -77.8,83.29 -161.19,152.34 -250.11,207.13 -88.93,54.8 -175.65,99.74 -260.13,134.81 -204.53,78.91 -420.19,118.37 -646.96,118.37 -297.92,-4.39 -562.49,-65.76 -793.71,-184.12 -97.82,-52.61 -194.53,-119.47 -290.13,-200.57 -95.6,-81.1 -180.09,-183.03 -253.45,-305.78 -73.36,-122.75 -132.29,-269.61 -176.75,-440.58 -44.46,-170.98 -66.7,-370.44 -66.7,-598.41 0,-227.96 22.24,-427.43 66.7,-598.4 44.46,-170.98 103.39,-318.94 176.75,-443.88 73.36,-124.94 157.85,-229.06 253.45,-312.35 95.6,-83.3 192.31,-151.25 290.13,-203.85 231.22,-122.75 495.79,-188.51 793.71,-197.28 244.56,8.77 473.55,59.18 686.98,151.24 88.93,39.46 178.98,90.97 270.13,154.53 91.15,63.57 175.64,142.49 253.45,236.74 77.81,94.25 146.73,206.04 206.76,335.37 60.04,129.32 103.38,279.48 130.06,450.45zm-840.39 0c-22.23,-70.15 -50.02,-140.28 -83.37,-210.43 -33.35,-70.14 -78.93,-133.71 -136.73,-190.7 -57.81,-56.99 -126.73,-101.93 -206.77,-134.81 -80.03,-32.87 -173.4,-49.32 -280.12,-49.32 -106.72,0 -200.09,16.45 -280.13,49.32 -80.04,32.88 -148.96,77.82 -206.76,134.81 -57.81,56.99 -104.5,120.56 -140.07,190.7 -35.57,70.15 -62.25,140.28 -80.04,210.43l1413.99 0zm4428.74 2091.13l-793.71 0 0 -460.31 146.74 -190.7c-75.6,184.12 -171.2,324.41 -286.81,420.85 -115.6,96.45 -228.99,166.6 -340.16,210.43 -128.93,48.23 -262.34,76.72 -400.18,85.49 -275.68,-4.39 -520.24,-65.76 -733.67,-184.12 -93.38,-52.61 -183.43,-119.47 -270.13,-200.57 -86.71,-81.1 -164.52,-183.03 -233.44,-305.78 -68.92,-122.75 -124.5,-269.61 -166.75,-440.58 -42.24,-170.98 -63.36,-370.44 -63.36,-598.41 0,-227.96 22.23,-427.43 66.7,-598.4 44.46,-170.98 103.38,-318.94 176.75,-443.88 73.36,-124.94 157.85,-229.06 253.45,-312.35 95.6,-83.3 192.31,-151.25 290.14,-203.85 231.21,-122.75 495.78,-188.51 793.69,-197.28 280.15,0 518.03,40.55 713.67,121.65 195.65,81.11 356.84,197.28 483.56,348.52 126.73,151.25 218.99,335.37 276.8,552.38 57.81,217 86.71,463.6 86.71,739.78l0 1657.13zm-1560.74 -2643.51c-164.52,0 -296.8,32.89 -396.85,98.64 -100.04,65.76 -176.74,147.96 -230.1,246.6 -53.37,98.64 -88.93,204.94 -106.72,318.93 -17.78,113.98 -26.68,219.2 -26.68,315.64 0,96.45 8.9,201.66 26.68,315.64 17.79,113.98 53.35,220.3 106.72,318.93 53.36,98.64 130.06,180.84 230.1,246.6 100.05,65.76 232.33,98.63 396.85,98.63 164.53,0 296.81,-32.87 396.87,-98.63 100.04,-65.76 177.85,-147.96 233.44,-246.6 55.58,-98.63 92.25,-204.95 110.04,-318.93 17.79,-113.98 26.68,-219.19 26.68,-315.64 0,-118.37 -7.78,-235.63 -23.35,-351.81 -15.55,-116.17 -48.91,-221.39 -100.04,-315.65 -51.14,-94.25 -127.83,-169.87 -230.11,-226.86 -102.27,-56.99 -240.11,-85.49 -413.53,-85.49zm1980.92 282.76c0,-227.96 48.92,-406.6 146.74,-535.93 97.83,-129.32 204.54,-226.87 320.15,-292.63 137.84,-78.91 293.47,-127.13 466.89,-144.67l933.76 0 0 795.68 -626.96 0c-88.93,0 -161.18,15.35 -216.76,46.04 -55.58,30.69 -98.94,63.56 -130.07,98.64 -35.57,43.83 -60.02,92.06 -73.37,144.67l0 2248.95 -820.38 0 0 -2360.75zm5349.17 276.2l-827.06 0c-22.23,-70.15 -50.02,-139.19 -83.36,-207.14 -33.36,-67.95 -77.83,-128.24 -133.4,-180.85 -55.59,-52.6 -123.39,-94.25 -203.43,-124.93 -80.04,-30.69 -175.64,-46.04 -286.8,-46.04 -164.53,0 -296.8,32.89 -396.85,98.64 -100.05,65.76 -176.76,147.96 -230.11,246.6 -53.36,98.64 -88.93,204.94 -106.72,318.93 -17.78,113.98 -26.68,219.2 -26.68,315.64 0,96.45 8.9,201.66 26.68,315.64 17.79,113.98 53.36,220.3 106.72,318.93 53.35,98.64 130.06,180.84 230.11,246.6 100.05,65.76 232.32,98.63 396.85,98.63 217.88,0 381.28,-56.98 490.23,-170.97 108.93,-113.98 183.42,-245.5 223.44,-394.55l820.38 0c-26.68,175.36 -70.04,327.7 -130.06,457.03 -60.03,129.32 -127.84,241.11 -203.43,335.36 -75.59,94.26 -157.85,172.08 -246.79,233.45 -88.92,61.38 -177.85,111.79 -266.78,151.24 -208.99,92.07 -437.99,138.1 -686.99,138.1 -297.92,-4.39 -562.49,-65.76 -793.7,-184.12 -97.83,-52.61 -194.54,-119.47 -290.14,-200.57 -95.6,-81.1 -180.09,-183.03 -253.45,-305.78 -73.36,-122.75 -132.29,-269.61 -176.75,-440.58 -44.46,-170.98 -66.7,-370.44 -66.7,-598.41 0,-227.96 22.24,-427.43 66.7,-598.4 44.46,-170.98 104.5,-318.94 180.09,-443.88 75.58,-124.94 160.07,-229.06 253.45,-312.35 93.37,-83.3 191.2,-151.25 293.46,-203.85 231.23,-122.75 495.79,-188.51 793.71,-197.28 244.56,8.77 471.33,59.18 680.32,151.24 88.93,39.46 177.86,90.97 266.78,154.53 88.94,63.57 171.2,143.58 246.79,240.03 75.59,96.44 143.4,209.33 203.43,338.65 60.02,129.33 103.38,279.48 130.06,450.46zm1247.24 -2354.18l0 1492.73c40.02,-43.83 86.71,-89.87 140.07,-138.1 53.36,-48.22 115.6,-92.06 186.74,-131.51 71.15,-39.46 153.42,-71.24 246.79,-95.35 93.37,-24.12 200.09,-36.17 320.15,-36.17 133.39,0 270.13,24.11 410.19,72.34 140.06,48.22 266.79,121.65 380.18,220.29 113.38,98.64 206.76,221.38 280.13,368.25 73.36,146.86 110.05,318.93 110.05,516.21l0 2170.04 -813.71 0 0 -1814.94c0,-105.22 -6.67,-202.76 -20.01,-292.63 -13.34,-89.87 -41.13,-169.88 -83.38,-240.02 -42.24,-70.15 -104.48,-124.95 -186.75,-164.4 -82.25,-39.46 -192.32,-59.18 -330.16,-59.18 -142.28,0 -255.66,19.72 -340.16,59.18 -84.48,39.45 -150.06,94.25 -196.74,164.4 -46.7,70.14 -76.71,150.15 -90.05,240.02 -13.34,89.87 -20.02,187.41 -20.02,292.63l13.35 1814.94 -820.39 0 0 -4438.73 813.72 0z"/>
  </g>
 </g>
</svg>
