<?xml version="1.0" encoding="UTF-8"?>
<!DOCTYPE svg PUBLIC "-//W3C//DTD SVG 1.1//EN" "http://www.w3.org/Graphics/SVG/1.1/DTD/svg11.dtd">
<!-- Creator: CorelDRAW -->
<svg xmlns="http://www.w3.org/2000/svg" xml:space="preserve" width="200mm" height="200mm" version="1.1" style="shape-rendering:geometricPrecision; text-rendering:geometricPrecision; image-rendering:optimizeQuality; fill-rule:evenodd; clip-rule:evenodd"
viewBox="0 0 20000 20000"
 xmlns:xlink="http://www.w3.org/1999/xlink"
 xmlns:xodm="http://www.corel.com/coreldraw/odm/2003">
 <defs>
  <style type="text/css">
   <![CDATA[
    .fil0 {fill:#0F3048}
   ]]>
  </style>
 </defs>
 <g id="Warstwa_x0020_1">
  <metadata id="CorelCorpID_0Corel-Layer"/>
  <path class="fil0" d="M11810.51 2117.57c-23.08,77.11 -75.26,165.41 -108.76,246.41 -37.34,90.28 -64.86,165.02 -99.84,256.16 -132.74,508.65 -212.63,865.13 -162.44,1423.42 3.95,43.96 13.16,95.27 15.21,136.61 7.67,154.96 -85.7,490.24 -155.73,632.11 -584.72,1184.43 -3546.72,3097.28 -4936.78,2398.12l8.52 45.81c-97.74,-46.53 -211.88,-115.25 -324.43,-172.19 -96.43,-48.79 -231.14,-100.57 -342.66,-139.38 -240.02,-83.54 -511.26,-144.63 -788.77,-173.5 -592.32,-61.6 -1170.35,35.63 -1671.23,232.1 -2023.33,793.64 -2821.58,3215.07 -1770.44,5058.13 423.43,742.45 1147.9,1405.06 2191.64,1679.13 817.6,214.7 1694.38,120.15 2443.68,-250.94 386.29,-191.3 352.69,-222.24 596.47,-367.43 450.77,-268.46 1158.32,-177.76 1629.21,-44.58 1233.95,349.01 2885.6,1273.81 3415.81,2382.62 243.73,509.73 43.15,807.9 289.25,1636.62 239.7,807.15 578.91,1085.12 657.12,1258.1 107.56,72.83 375.03,504.5 1112.33,881.68 1012.19,517.8 2221.37,525.58 3234.57,5.51 303.87,-155.98 636.26,-398.6 874.62,-627.41 93.47,-89.73 139.41,-171.12 249.4,-260.64 64.72,-161.14 474.43,-506.43 708.34,-1438.57 222.82,-887.96 63.12,-1872.4 -393.2,-2640.48 -326.13,-548.95 -795.81,-1020.27 -1362.46,-1315.59 -69.77,-36.36 -306.86,-141.07 -343.81,-172.25 -77.3,-93.49 31.37,88.79 -0.52,-24.88 -12.01,-42.81 -111.71,-109.34 -184.81,-197.66 -70.14,-84.73 -121.5,-177.08 -177.5,-285.5 -339.3,-656.84 -434.14,-1628.56 -457.84,-2370.75 -32.24,-1009.56 87.88,-2529.6 736.05,-3005.31l-77.85 -25.76c202.93,-81.47 555.13,-341.64 716.62,-484.18 642.06,-566.68 1104.23,-1457.43 1171.6,-2370.01 50.78,-687.96 -53.53,-847.87 -168.55,-1407.43l-208.73 -498.09c-63.84,-163.91 -386.03,-623.24 -519.75,-756.27 -224.2,-223.04 -409.34,-413.46 -682.9,-588.31 -558.12,-356.73 -1191.23,-555.91 -1831.84,-581.5l-280.92 0c-513.49,20.37 -1025.47,153.48 -1501.3,407.77l-302.94 178.59c-63.05,42.03 -121.38,85.28 -179.3,128.87 -328.35,247.15 -705.74,644 -901.3,1005.52 -40.95,75.7 -74.36,134.58 -113.84,205.33zm513.72 4518.81c-912.1,114.18 -1759.32,604.87 -2396.66,1003.05 -628.09,392.41 -1434.29,1006.6 -1755.84,1634.41 -146.25,285.53 -126.77,359.39 -92.83,691.21 63.56,621.41 -136.51,684.42 357.96,1334.54 743.47,977.5 3351.67,2440.86 4572.17,2136.16 127.54,-31.84 163.56,-95.34 257.17,-165.83 626.79,-472.03 739,-265.6 1120.11,-999.42 202.54,-389.97 299.4,-865.65 347.03,-1350.87 97.42,-992.69 -10.18,-2790.77 -595.19,-3568.6 -203.57,-270.67 -192.22,-184.06 -520.54,-326.54 -630.28,-273.5 -636.76,-470.31 -1293.38,-388.11zm327.9 -1338.69c-186.03,-450.39 -276.27,-654.8 -172.77,-1252.67 60.71,-350.75 226.82,-884.61 430.11,-1070.95 338.94,-310.68 659.72,152.7 1127.18,-258.74 231.12,-203.42 326.57,-524.4 201.39,-838.23 -42.33,-106.13 -104.54,-155.77 -139.47,-235.63 539.07,-294.01 1072.72,-576.69 1787.75,-529.62 297.83,19.61 394.16,83.63 615.37,177.93 -178.17,-182.44 -507.07,-347.56 -816.61,-435.08 -2061.51,-582.88 -4135.01,1556.57 -3495.61,3629.55 84.69,274.58 302.32,691.46 462.66,813.44zm598.15 12330.99c-71.59,-196.83 -144.05,-254.07 -184.32,-557.75 -72.27,-545.03 165.14,-1524.07 450.03,-1759.77 353.78,-292.69 675.88,151.44 1144.61,-261.76 208.74,-184.01 302.93,-527.43 187.28,-818.77 -47.8,-120.4 -104.08,-157.13 -144.54,-252.61 72.33,-28.79 162.34,-89.57 237.05,-131.72 422.41,-238.36 1009.76,-415.64 1504.48,-394.89 304.84,12.78 379.68,74.98 619.79,151.9 -63.01,-84.56 -278.47,-205.18 -372.82,-253.42 -1584.19,-809.95 -3725.24,409.15 -3986.15,2344.36 -88.89,659.3 63.73,1318.03 456.22,1839.38l88.37 95.05zm-10947.49 -5617.71c-202.56,-411.58 -290.63,-680.46 -200.41,-1240.13 50.21,-311.49 248.59,-950.45 417.56,-1101.65 363.08,-324.89 634.59,128.83 1146.27,-260.26 204.05,-155.17 325.44,-522.66 208.27,-827.26 -48.35,-125.68 -91.27,-155.67 -143.55,-242.85 188.71,-187.52 762.53,-405.16 1098,-481.25 527.41,-119.62 907.59,-92.79 1325.16,132.27 -1107.93,-982.39 -2909.34,-541.64 -3753.48,539.68 -52.58,67.34 -96.88,118.13 -143.44,183.6 -607.28,854.05 -763.99,2007.08 -221.44,2939.77 91.06,156.53 166.06,236.36 267.06,358.08z"/>
 </g>
</svg>
